<svg width="400" height="400" viewBox="0 0 400 400" fill="none" xmlns="http://www.w3.org/2000/svg">
<path d="M200.158 9C148.247 9 141.732 9.22675 121.344 10.154C100.995 11.085 87.1054 14.3042 74.9518 19.0277C62.3804 23.906 51.7161 30.4318 41.0919 41.0521C30.4598 51.6687 23.9289 62.3248 19.031 74.8831C14.2922 87.0316 11.0666 100.915 10.1508 121.24C9.23899 141.614 9 148.128 9 200C9 251.873 9.23102 258.362 10.1547 278.736C11.0907 299.069 14.3122 312.949 19.0349 325.093C23.921 337.655 30.4516 348.311 41.0799 358.928C51.7004 369.552 62.3644 376.094 74.9279 380.973C87.0893 385.696 100.983 388.915 121.328 389.846C141.716 390.773 148.227 391 200.134 391C252.049 391 258.544 390.773 278.932 389.846C299.281 388.915 313.186 385.696 325.348 380.972C337.915 376.094 348.564 369.552 359.184 358.928C369.816 348.311 376.347 337.655 381.245 325.097C385.944 312.949 389.169 299.065 390.125 278.74C391.041 258.367 391.28 251.872 391.28 200C391.28 148.127 391.041 141.618 390.125 121.244C389.169 100.911 385.944 87.0315 381.245 74.8871C376.347 62.3248 369.816 51.6685 359.184 41.0521C348.552 30.4277 337.919 23.9019 325.336 19.0275C313.151 14.3042 299.253 11.085 278.904 10.154C258.516 9.22675 252.025 9 200.098 9H200.158ZM183.011 43.4199C188.1 43.4119 193.778 43.4199 200.158 43.4199C251.193 43.4199 257.242 43.6029 277.395 44.5181C296.031 45.3697 306.146 48.4812 312.884 51.0956C321.804 54.5574 328.163 58.6958 334.849 65.3808C341.539 72.0659 345.68 78.4326 349.153 87.3457C351.769 94.0705 354.887 104.178 355.735 122.8C356.651 142.935 356.85 148.983 356.85 199.956C356.85 250.929 356.651 256.978 355.735 277.112C354.883 295.735 351.769 305.842 349.153 312.567C345.689 321.48 341.539 327.827 334.849 334.508C328.159 341.193 321.808 345.331 312.884 348.793C306.154 351.419 296.031 354.523 277.395 355.375C257.246 356.29 251.193 356.489 200.158 356.489C149.119 356.489 143.07 356.29 122.921 355.375C104.284 354.515 94.1698 351.403 87.4279 348.789C78.5079 345.327 72.1364 341.189 65.4466 334.504C58.7566 327.819 54.6153 321.468 51.1428 312.551C48.5265 305.826 45.4085 295.719 44.5604 277.096C43.6445 256.962 43.4613 250.914 43.4613 199.908C43.4613 148.904 43.6445 142.887 44.5604 122.752C45.4126 104.13 48.5265 94.0229 51.1428 87.2902C54.6072 78.3768 58.7566 72.0101 65.4466 65.3252C72.1364 58.6401 78.5079 54.5018 87.4279 51.032C94.1657 48.4056 104.284 45.3021 122.921 44.4464C140.553 43.6505 147.387 43.4119 183.011 43.3719L183.011 43.4199Z" fill="currentColor"/>
<path d="M303.274 76.5C304.165 76.5 304.986 76.8481 305.617 77.499C305.631 77.5154 305.644 77.5305 305.655 77.542C305.686 77.5759 305.726 77.6181 305.768 77.6631C305.855 77.7547 305.975 77.8799 306.116 78.0264C306.399 78.3203 306.777 78.7105 307.166 79.1104C307.939 79.9057 308.774 80.7584 308.988 80.9717L309.426 81.4092H313.691C314.755 81.4092 315.721 82.3325 315.721 83.5879V88.3818L316.054 88.7939C316.162 88.9278 322.548 96.8534 324.317 99.0439L324.331 99.0615C325.226 100.137 325.774 101.515 325.774 103.021C325.774 106.354 323.169 109.009 320.065 109.074L318.739 109.102L318.604 110.422C318.289 113.508 315.784 115.846 312.815 115.847C311.854 115.847 310.949 115.604 310.131 115.166L308.888 114.5L308.147 115.7C307.094 117.405 305.301 118.5 303.267 118.5C301.236 118.5 299.446 117.404 298.404 115.704L297.665 114.499L296.418 115.165C295.595 115.604 294.691 115.847 293.73 115.847C290.764 115.847 288.256 113.507 287.944 110.423L287.81 109.104L286.484 109.074L286.195 109.061C283.218 108.84 280.774 106.248 280.774 103.021C280.774 101.514 281.32 100.135 282.213 99.0615L282.22 99.0537L282.226 99.0459C283.991 96.8687 290.392 88.9192 290.505 88.7744L290.824 88.3672V83.5879C290.824 82.3344 291.791 81.4092 292.857 81.4092H297.128L297.568 80.9668C297.777 80.7563 298.607 79.908 299.382 79.1113C299.771 78.7118 300.15 78.3217 300.433 78.0273C300.574 77.8808 300.695 77.7545 300.782 77.6621C300.824 77.6169 300.864 77.5742 300.896 77.5391C300.907 77.527 300.921 77.5103 300.937 77.4922C301.57 76.8426 302.385 76.5 303.274 76.5Z" stroke="currentColor" stroke-width="3"/>
<path d="M303.272 72C305.131 72 306.94 72.7117 308.296 73.9609L308.562 74.2178L308.571 74.2275L308.581 74.2373L311.288 77.0283H314.007C317.911 77.0283 320.028 80.3366 320.028 83.1279V86.7002L328.52 97.1611L328.619 97.2822L328.71 97.4092C330.249 99.5675 330.274 101.95 330.274 103.108C330.274 107.402 327.648 111.151 323.812 112.646C323.359 112.822 322.918 112.944 322.49 113.024C321.26 117.123 317.522 120.282 312.865 120.282C312.005 120.282 311.172 120.171 310.381 119.967C310.322 119.952 310.264 119.933 310.207 119.917C308.5 121.703 306.158 122.839 303.566 122.991L303.272 123.009L302.977 122.991C300.387 122.838 298.047 121.703 296.339 119.917C296.282 119.933 296.225 119.952 296.167 119.967C295.375 120.171 294.543 120.282 293.683 120.282C289.029 120.282 285.291 117.123 284.063 113.024C283.633 112.944 283.189 112.821 282.734 112.644C278.904 111.149 276.274 107.405 276.274 103.108C276.274 101.938 276.307 99.5693 277.83 97.4209L277.924 97.2881L278.028 97.1611L286.52 86.7002V83.1279C286.52 80.3368 288.633 77.0285 292.544 77.0283H295.261L297.973 74.2354L297.975 74.2324C299.36 72.8078 301.3 72.0001 303.272 72Z" stroke="currentColor" stroke-width="10"/>
<path d="M122 148C122 148 122 159.684 122 227.842C122 296 201.05 296 201.05 296M279 148C279 148 279 159.684 279 227.842C279 296 199.95 296 199.95 296" stroke="currentColor" stroke-width="31" stroke-linecap="round"/>
</svg>
