<svg width="400" height="400" viewBox="0 0 400 400" fill="none" xmlns="http://www.w3.org/2000/svg">
<g clip-path="url(#clip0_2_111)">
<g clip-path="url(#clip1_2_111)">
<path d="M200.065 0C116.567 0 92.147 0.086172 87.4002 0.479999C70.2651 1.90473 59.6026 4.60347 47.9861 10.3884C39.0341 14.8351 31.9737 19.9893 25.0058 27.2146C12.316 40.3911 4.62509 56.6016 1.84094 75.871C0.487414 85.2256 0.0935842 87.1334 0.0136094 134.916C-0.0170804 150.844 0.0136094 171.805 0.0136094 199.921C0.0136094 283.375 0.105829 307.777 0.505855 312.516C1.89022 329.194 4.50505 339.687 10.0425 351.165C20.6252 373.136 40.8366 389.63 64.6476 395.784C72.8923 397.908 81.9982 399.077 93.6883 399.631C98.6413 399.846 149.124 400 199.638 400C250.151 400 300.665 399.938 305.495 399.692C319.031 399.055 326.891 398 335.581 395.753C359.546 389.568 379.389 373.321 390.186 351.042C395.616 339.841 398.37 328.948 399.616 313.14C399.886 309.694 400 254.745 400 199.869C400 144.985 399.877 90.1368 399.606 86.6903C398.345 70.6274 395.592 59.8266 389.987 48.4102C385.387 39.0648 380.281 32.0856 372.867 24.9499C359.635 12.3087 343.454 4.61571 324.171 1.83398C314.828 0.483024 312.967 0.0829984 265.161 0H200.065Z" fill="url(#paint0_radial_2_111)"/>
<path d="M200.065 0C116.567 0 92.147 0.086172 87.4002 0.479999C70.2651 1.90473 59.6026 4.60347 47.9861 10.3884C39.0341 14.8351 31.9737 19.9893 25.0058 27.2146C12.316 40.3911 4.62509 56.6016 1.84094 75.871C0.487414 85.2256 0.0935842 87.1334 0.0136094 134.916C-0.0170804 150.844 0.0136094 171.805 0.0136094 199.921C0.0136094 283.375 0.105829 307.777 0.505855 312.516C1.89022 329.194 4.50505 339.687 10.0425 351.165C20.6252 373.136 40.8366 389.63 64.6476 395.784C72.8923 397.908 81.9982 399.077 93.6883 399.631C98.6413 399.846 149.124 400 199.638 400C250.151 400 300.665 399.938 305.495 399.692C319.031 399.055 326.891 398 335.581 395.753C359.546 389.568 379.389 373.321 390.186 351.042C395.616 339.841 398.37 328.948 399.616 313.14C399.886 309.694 400 254.745 400 199.869C400 144.985 399.877 90.1368 399.606 86.6903C398.345 70.6274 395.592 59.8266 389.987 48.4102C385.387 39.0648 380.281 32.0856 372.867 24.9499C359.635 12.3087 343.454 4.61571 324.171 1.83398C314.828 0.483024 312.967 0.0829984 265.161 0H200.065Z" fill="url(#paint1_radial_2_111)"/>
<path d="M200.065 0C116.567 0 92.147 0.086172 87.4002 0.479999C70.2651 1.90473 59.6026 4.60347 47.9861 10.3884C39.0341 14.8351 31.9737 19.9893 25.0058 27.2146C12.316 40.3911 4.62509 56.6016 1.84094 75.871C0.487414 85.2256 0.0935842 87.1334 0.0136094 134.916C-0.0170804 150.844 0.0136094 171.805 0.0136094 199.921C0.0136094 283.375 0.105829 307.777 0.505855 312.516C1.89022 329.194 4.50505 339.687 10.0425 351.165C20.6252 373.136 40.8366 389.63 64.6476 395.784C72.8923 397.908 81.9982 399.077 93.6883 399.631C98.6413 399.846 149.124 400 199.638 400C250.151 400 300.665 399.938 305.495 399.692C319.031 399.055 326.891 398 335.581 395.753C359.546 389.568 379.389 373.321 390.186 351.042C395.616 339.841 398.37 328.948 399.616 313.14C399.886 309.694 400 254.745 400 199.869C400 144.985 399.877 90.1368 399.606 86.6903C398.345 70.6274 395.592 59.8266 389.987 48.4102C385.387 39.0648 380.281 32.0856 372.867 24.9499C359.635 12.3087 343.454 4.61571 324.171 1.83398C314.828 0.483024 312.967 0.0829984 265.161 0H200.065Z" fill="url(#paint2_radial_2_111)"/>
<path d="M200.065 0C116.567 0 92.147 0.086172 87.4002 0.479999C70.2651 1.90473 59.6026 4.60347 47.9861 10.3884C39.0341 14.8351 31.9737 19.9893 25.0058 27.2146C12.316 40.3911 4.62509 56.6016 1.84094 75.871C0.487414 85.2256 0.0935842 87.1334 0.0136094 134.916C-0.0170804 150.844 0.0136094 171.805 0.0136094 199.921C0.0136094 283.375 0.105829 307.777 0.505855 312.516C1.89022 329.194 4.50505 339.687 10.0425 351.165C20.6252 373.136 40.8366 389.63 64.6476 395.784C72.8923 397.908 81.9982 399.077 93.6883 399.631C98.6413 399.846 149.124 400 199.638 400C250.151 400 300.665 399.938 305.495 399.692C319.031 399.055 326.891 398 335.581 395.753C359.546 389.568 379.389 373.321 390.186 351.042C395.616 339.841 398.37 328.948 399.616 313.14C399.886 309.694 400 254.745 400 199.869C400 144.985 399.877 90.1368 399.606 86.6903C398.345 70.6274 395.592 59.8266 389.987 48.4102C385.387 39.0648 380.281 32.0856 372.867 24.9499C359.635 12.3087 343.454 4.61571 324.171 1.83398C314.828 0.483024 312.967 0.0829984 265.161 0H200.065Z" fill="url(#paint3_radial_2_111)"/>
<path d="M200.081 51.3608C159.69 51.3608 154.621 51.5372 138.758 52.2586C122.925 52.9831 112.118 55.4879 102.661 59.1631C92.8796 62.9588 84.5821 68.0364 76.3156 76.2998C68.043 84.5603 62.9615 92.8515 59.1505 102.623C55.4634 112.075 52.9536 122.877 52.2411 138.692C51.5316 154.544 51.3456 159.613 51.3456 199.973C51.3456 240.334 51.5254 245.384 52.2441 261.236C52.9723 277.057 55.4789 287.856 59.1535 297.305C62.9553 307.08 68.0366 315.371 76.3062 323.631C84.5698 331.898 92.8672 336.988 102.643 340.784C112.105 344.459 122.916 346.964 138.745 347.688C154.609 348.409 159.675 348.586 200.062 348.586C240.456 348.586 245.51 348.409 261.373 347.688C277.206 346.964 288.026 344.459 297.488 340.784C307.267 336.988 315.552 331.898 323.815 323.631C332.088 315.371 337.17 307.08 340.981 297.308C344.637 287.856 347.146 277.054 347.89 261.239C348.603 245.387 348.788 240.334 348.788 199.973C348.788 159.613 348.603 154.547 347.89 138.695C347.146 122.874 344.637 112.075 340.981 102.626C337.17 92.8515 332.088 84.5602 323.815 76.2998C315.543 68.0332 307.27 62.9556 297.479 59.1629C287.998 55.4879 277.185 52.9831 261.352 52.2586C245.488 51.5372 240.438 51.3608 200.035 51.3608H200.081ZM186.739 78.1421C190.699 78.1359 195.117 78.1421 200.081 78.1421C239.79 78.1421 244.496 78.2845 260.177 78.9965C274.678 79.6592 282.548 82.0802 287.79 84.1143C294.731 86.8079 299.679 90.0279 304.881 95.2293C310.086 100.431 313.309 105.385 316.011 112.32C318.046 117.552 320.472 125.416 321.132 139.906C321.845 155.572 322 160.278 322 199.939C322 239.6 321.845 244.306 321.132 259.973C320.469 274.462 318.046 282.326 316.011 287.559C313.315 294.494 310.086 299.432 304.881 304.631C299.676 309.832 294.734 313.052 287.79 315.746C282.554 317.789 274.678 320.204 260.177 320.867C244.5 321.579 239.79 321.733 200.081 321.733C160.369 321.733 155.662 321.579 139.984 320.867C125.484 320.198 117.614 317.777 112.369 315.743C105.428 313.049 100.471 309.829 95.2654 304.628C90.0601 299.426 86.8378 294.485 84.1359 287.546C82.1003 282.314 79.6743 274.45 79.0144 259.96C78.3017 244.294 78.1591 239.588 78.1591 199.902C78.1591 160.216 78.3017 155.535 79.0144 139.869C79.6774 125.379 82.1003 117.515 84.1359 112.276C86.8315 105.341 90.0601 100.387 95.2654 95.1861C100.471 89.9845 105.428 86.7647 112.369 84.0649C117.611 82.0214 125.484 79.6066 139.984 78.9408C153.704 78.3215 159.021 78.1359 186.739 78.1047L186.739 78.1421Z" fill="white"/>
</g>
<path d="M280 104.5C280.63 104.5 281.201 104.741 281.641 105.188C281.649 105.197 281.657 105.205 281.663 105.212C281.69 105.24 281.723 105.274 281.757 105.31C281.826 105.382 281.922 105.481 282.034 105.595C282.259 105.824 282.558 106.128 282.866 106.438C283.478 107.056 284.141 107.722 284.312 107.89L284.749 108.318H288.247C288.929 108.318 289.541 108.899 289.541 109.68V113.533L289.883 113.948C289.969 114.053 295.022 120.214 296.424 121.92L296.431 121.929L296.438 121.938C297.1 122.718 297.5 123.714 297.5 124.795C297.5 127.189 295.59 129.121 293.287 129.169L291.963 129.196L291.826 130.514C291.595 132.735 289.754 134.437 287.553 134.437C286.841 134.436 286.173 134.26 285.567 133.941L284.338 133.294L283.599 134.471C282.823 135.705 281.5 136.5 279.995 136.5C278.493 136.5 277.171 135.705 276.404 134.475L275.668 133.293L274.435 133.94C273.825 134.26 273.156 134.437 272.444 134.437C270.245 134.437 268.402 132.734 268.174 130.515L268.039 129.197L266.715 129.169L266.5 129.158C264.292 128.998 262.5 127.113 262.5 124.795C262.5 123.712 262.898 122.717 263.559 121.938L263.565 121.93L263.571 121.923C264.967 120.231 270.039 114.043 270.13 113.929L270.456 113.519V109.68C270.456 108.9 271.07 108.318 271.753 108.318H275.257L275.695 107.886C275.862 107.721 276.521 107.06 277.134 106.44C277.442 106.13 277.742 105.825 277.967 105.596C278.079 105.481 278.175 105.382 278.245 105.309C278.279 105.273 278.313 105.239 278.34 105.209C278.346 105.202 278.354 105.193 278.363 105.183C278.804 104.737 279.372 104.5 280 104.5Z" stroke="white" stroke-width="3"/>
<path d="M280.214 102.506C281.216 102.556 282.191 102.953 282.937 103.625L283.093 103.773L283.103 103.783L285.452 106.153C285.546 106.248 285.674 106.302 285.807 106.302H288.294C290.364 106.302 291.583 108.033 291.583 109.634V112.593C291.583 112.709 291.624 112.822 291.698 112.912L298.433 121.03L298.483 121.091L298.529 121.153C299.462 122.433 299.5 123.877 299.5 124.74C299.5 127.256 298.063 129.436 295.966 130.496C295.208 130.879 294.439 130.986 293.726 130.909C293.707 131.172 293.665 131.443 293.588 131.721C292.84 134.421 290.386 136.445 287.411 136.445C287.059 136.445 286.713 136.417 286.377 136.361C285.825 136.271 285.348 136.086 284.938 135.842C284.793 136.077 284.62 136.307 284.412 136.526C283.316 137.679 281.804 138.4 280.143 138.496L279.998 138.504L279.854 138.496C278.198 138.4 276.689 137.682 275.592 136.532C275.381 136.312 275.206 136.08 275.061 135.843C274.65 136.087 274.174 136.271 273.622 136.361C273.286 136.416 272.941 136.445 272.589 136.445C269.614 136.445 267.159 134.418 266.415 131.715C266.339 131.439 266.297 131.169 266.278 130.908C265.564 130.986 264.794 130.879 264.034 130.495C261.939 129.435 260.5 127.257 260.5 124.74C260.5 123.872 260.543 122.435 261.466 121.16L261.515 121.094L261.567 121.03L268.302 112.912C268.376 112.822 268.417 112.709 268.417 112.593V109.634C268.417 108.033 269.633 106.302 271.709 106.302H274.194C274.327 106.302 274.455 106.249 274.549 106.154L276.901 103.782L276.902 103.78C277.718 102.96 278.858 102.5 279.999 102.5L280.214 102.506Z" stroke="white" stroke-width="5"/>
<path d="M140 154C140 154 140 163 140 215.5C140 268 200.924 268 200.924 268M261 154C261 154 261 163 261 215.5C261 268 200.076 268 200.076 268" stroke="white" stroke-width="25" stroke-linecap="round"/>
</g>
<defs>
<radialGradient id="paint0_radial_2_111" cx="0" cy="0" r="1" gradientTransform="matrix(-245.982 69.3727 -49.9804 -177.218 387.084 187.485)" gradientUnits="userSpaceOnUse">
<stop stop-color="#E30613"/>
<stop offset="1" stop-color="#E30613"/>
</radialGradient>
<radialGradient id="paint1_radial_2_111" cx="0" cy="0" r="1" gradientUnits="userSpaceOnUse" gradientTransform="translate(106.247 430.808) rotate(-90) scale(319.288 338.757)">
<stop stop-color="#FFCC00"/>
<stop offset="0.370192" stop-color="#FFCC00"/>
<stop offset="0.865385" stop-color="#FE4A05"/>
<stop offset="1" stop-color="#E30613"/>
</radialGradient>
<radialGradient id="paint2_radial_2_111" cx="0" cy="0" r="1" gradientTransform="matrix(66.2727 -114.19 148.662 86.28 210.108 394.359)" gradientUnits="userSpaceOnUse">
<stop stop-color="#FFCC00"/>
<stop offset="1" stop-color="#FFCC00" stop-opacity="0"/>
</radialGradient>
<radialGradient id="paint3_radial_2_111" cx="0" cy="0" r="1" gradientTransform="matrix(-243.282 68.504 -23.3333 -82.8875 54.2714 16.2879)" gradientUnits="userSpaceOnUse">
<stop stop-color="#009FE3"/>
<stop offset="1" stop-color="#820BFF" stop-opacity="0"/>
</radialGradient>
<clipPath id="clip0_2_111">
<rect width="400" height="400" fill="white"/>
</clipPath>
<clipPath id="clip1_2_111">
<rect width="400" height="400" fill="white"/>
</clipPath>
</defs>
</svg>
