<svg width="1257" height="400" viewBox="0 0 1257 400" fill="none" xmlns="http://www.w3.org/2000/svg">
<rect width="1257" height="400" fill="white"/>
<path d="M40.4941 113.5H144.244C144.244 131.667 144.244 148.667 144.244 164.5C144.244 180.333 144.244 196.167 144.244 212C144.244 214.5 144.744 216.667 145.744 218.5C146.911 220.333 148.327 221.917 149.994 223.25C151.827 224.417 153.827 225.333 155.994 226C158.327 226.667 160.661 227 162.994 227C167.827 227 172.161 225.75 175.994 223.25C179.827 220.75 181.744 217.083 181.744 212.25C181.744 204.25 181.744 196.333 181.744 188.5C181.744 180.667 181.744 172.75 181.744 164.75C181.744 156.75 181.744 148.5 181.744 140C181.744 131.5 181.744 122.667 181.744 113.5H285.494C285.494 126.167 285.494 139.167 285.494 152.5C285.494 165.833 285.494 179.25 285.494 192.75C285.494 206.083 285.494 219.083 285.494 231.75C285.494 244.583 281.994 255.833 274.994 265.5C268.161 275 258.911 283 247.244 289.5C235.577 295.833 222.411 300.583 207.744 303.75C193.244 306.917 178.327 308.5 162.994 308.5C150.827 308.5 138.744 307.5 126.744 305.5C114.911 303.5 103.744 300.417 93.2441 296.25C82.9108 292.083 73.7441 287 65.7441 281C57.9108 274.833 51.7441 267.667 47.2441 259.5C42.7441 251.167 40.4941 241.917 40.4941 231.75C40.4941 225.417 40.4941 218.917 40.4941 212.25C40.4941 205.417 40.4941 198.667 40.4941 192C40.4941 183.167 40.4941 174.333 40.4941 165.5C40.4941 156.667 40.4941 147.917 40.4941 139.25C40.4941 130.417 40.4941 121.833 40.4941 113.5ZM513.627 146C513.627 166.167 513.627 186.417 513.627 206.75C513.627 227.083 513.627 247.417 513.627 267.75C513.627 276.75 511.544 284.917 507.377 292.25C503.21 299.417 497.46 305.75 490.127 311.25C482.794 316.917 474.294 321.583 464.627 325.25C454.96 328.917 444.544 331.667 433.377 333.5C422.21 335.5 410.877 336.5 399.377 336.5C384.71 336.5 370.21 334.917 355.877 331.75C341.544 328.583 328.71 323.833 317.377 317.5V277.75C322.21 280.917 328.044 283.833 334.877 286.5C341.877 289 349.294 291 357.127 292.5C364.96 294 372.71 294.75 380.377 294.75C386.71 294.75 392.627 294.167 398.127 293C403.794 291.667 408.794 289.667 413.127 287C417.46 284.333 420.877 280.833 423.377 276.5C425.877 272.167 427.127 266.833 427.127 260.5V214.25C427.127 211.25 426.544 208.667 425.377 206.5C424.21 204.333 422.46 202.583 420.127 201.25C417.96 199.75 415.377 198.667 412.377 198C409.377 197.167 406.044 196.75 402.377 196.75C397.377 196.75 392.877 197.417 388.877 198.75C385.044 199.917 382.044 201.75 379.877 204.25C377.71 206.75 376.627 209.833 376.627 213.5C376.627 217.333 377.71 220.583 379.877 223.25C382.21 225.917 385.294 228 389.127 229.5C392.96 230.833 397.377 231.5 402.377 231.5C415.71 231.5 423.96 226.667 427.127 217L412.127 275.75C405.127 279.917 398.21 282.417 391.377 283.25C384.544 284.083 377.627 284.5 370.627 284.5C360.46 284.5 350.71 282.917 341.377 279.75C332.044 276.417 323.71 271.75 316.377 265.75C309.21 259.583 303.46 252.167 299.127 243.5C294.96 234.667 292.877 224.667 292.877 213.5C292.877 206 293.877 199.083 295.877 192.75C297.877 186.417 300.71 180.583 304.377 175.25C308.044 169.917 312.377 165.25 317.377 161.25C322.544 157.083 328.127 153.583 334.127 150.75C340.294 147.917 346.794 145.833 353.627 144.5C360.627 143 367.71 142.25 374.877 142.25C378.21 142.25 381.794 142.5 385.627 143C389.46 143.333 393.294 144 397.127 145C401.127 145.833 404.96 147.083 408.627 148.75C412.294 150.25 415.627 152.167 418.627 154.5C421.794 156.667 424.46 159.333 426.627 162.5C426.794 162.833 426.877 163 426.877 163C427.044 163 427.127 162.917 427.127 162.75C427.127 162.583 427.127 162.417 427.127 162.25C427.127 160.417 427.127 157.75 427.127 154.25C427.127 150.583 427.127 147.833 427.127 146H513.627ZM609.904 146C609.904 156 609.904 166.083 609.904 176.25C609.904 186.25 609.904 196.333 609.904 206.5C609.904 216.5 609.904 226.583 609.904 236.75C609.904 247.417 609.904 258.083 609.904 268.75C609.904 279.417 609.904 290.167 609.904 301H523.404C523.404 284.5 523.404 268 523.404 251.5C523.404 235 523.404 218.5 523.404 202C523.404 192.667 523.404 183.333 523.404 174C523.404 164.667 523.404 155.333 523.404 146H609.904ZM609.654 241.5L623.154 174.25C624.654 167.083 627.571 161.167 631.904 156.5C636.404 151.667 641.654 148 647.654 145.5C653.654 143 659.821 141.5 666.154 141C672.488 140.333 678.321 140.583 683.654 141.75C688.988 142.75 693.238 144.5 696.404 147L677.404 240C672.571 236 666.654 233.25 659.654 231.75C652.821 230.25 645.904 229.75 638.904 230.25C631.904 230.583 625.738 231.75 620.404 233.75C615.071 235.75 611.488 238.333 609.654 241.5ZM702.891 155C715.057 149.5 728.224 145.417 742.391 142.75C756.724 139.917 771.057 138.5 785.391 138.5C799.391 138.5 812.891 139.833 825.891 142.5C838.891 145.167 850.474 149.25 860.641 154.75C870.974 160.25 879.141 167.083 885.141 175.25C891.141 183.417 894.141 193 894.141 204C894.141 220.167 894.141 236.333 894.141 252.5C894.141 268.667 894.141 284.833 894.141 301C888.307 301 882.474 301 876.641 301C870.807 301 864.974 301 859.141 301C853.307 301 847.474 301 841.641 301C835.807 301 829.974 301 824.141 301C818.307 301 812.474 301 806.641 301C806.641 292.167 806.641 283.417 806.641 274.75C806.641 265.917 806.641 257.167 806.641 248.5C806.641 245.5 805.641 243.083 803.641 241.25C801.641 239.417 799.224 238.167 796.391 237.5C793.557 236.667 790.724 236.25 787.891 236.25C781.557 236.25 776.724 237.5 773.391 240C770.224 242.5 768.641 245.333 768.641 248.5C768.641 251.667 770.307 254.583 773.641 257.25C776.974 259.75 781.724 261 787.891 261C790.891 261 794.307 260.417 798.141 259.25C801.974 258.083 804.891 255.083 806.891 250.25C803.391 258.417 799.807 266.583 796.141 274.75C792.641 282.917 789.141 291.083 785.641 299.25C779.641 302.25 773.307 304.333 766.641 305.5C760.141 306.833 753.641 307.5 747.141 307.5C739.307 307.5 731.724 306.417 724.391 304.25C717.224 302.25 710.724 299.25 704.891 295.25C699.224 291.25 694.724 286.25 691.391 280.25C688.057 274.25 686.391 267.25 686.391 259.25C686.391 254.417 687.224 249.667 688.891 245C690.557 240.333 693.057 235.917 696.391 231.75C699.724 227.583 703.891 223.917 708.891 220.75C714.057 217.583 720.141 215.167 727.141 213.5C734.141 211.667 742.141 210.75 751.141 210.75C756.974 210.75 762.641 211.25 768.141 212.25C773.641 213.083 778.807 214.417 783.641 216.25C788.641 218.083 793.057 220.333 796.891 223C800.891 225.667 804.141 228.667 806.641 232C806.641 231.667 806.641 231.417 806.641 231.25C806.641 230.917 806.641 230.667 806.641 230.5C806.641 230.167 806.641 229.917 806.641 229.75C806.641 224.583 805.307 220.167 802.641 216.5C800.141 212.667 796.641 209.583 792.141 207.25C787.807 204.75 782.724 202.917 776.891 201.75C771.224 200.583 765.224 200 758.891 200C749.057 200 739.141 201.25 729.141 203.75C719.141 206.25 710.391 209.917 702.891 214.75V155ZM903.775 301C903.775 289.167 903.775 277.333 903.775 265.5C903.775 253.667 903.775 241.833 903.775 230C903.775 218 903.775 206.083 903.775 194.25C903.775 186.083 903.775 178 903.775 170C903.775 162 903.775 154 903.775 146H990.275C990.275 157 990.275 168 990.275 179C990.275 189.833 990.275 200.75 990.275 211.75C990.275 226.583 990.275 241.5 990.275 256.5C990.275 271.333 990.275 286.167 990.275 301H903.775ZM1018.28 301C1018.28 288 1018.28 274.833 1018.28 261.5C1018.28 248.167 1018.28 235 1018.28 222C1018.28 217.167 1017.03 213.75 1014.53 211.75C1012.19 209.75 1009.36 208.667 1006.03 208.5C1002.69 208.333 999.609 208.75 996.775 209.75C994.109 210.75 992.442 211.75 991.775 212.75L1011.78 148.5C1023.94 143.167 1037.11 140.5 1051.28 140.5C1058.28 140.5 1064.94 141.333 1071.28 143C1077.61 144.667 1083.28 147.25 1088.28 150.75C1093.44 154.25 1097.44 158.917 1100.28 164.75C1103.28 170.417 1104.78 177.25 1104.78 185.25C1104.78 190.083 1104.78 195 1104.78 200C1104.78 205 1104.78 209.917 1104.78 214.75C1104.78 217.083 1104.78 219.5 1104.78 222C1104.78 224.333 1104.78 226.667 1104.78 229C1104.78 231.333 1104.78 233.75 1104.78 236.25C1104.78 246.917 1104.78 257.667 1104.78 268.5C1104.78 279.333 1104.78 290.167 1104.78 301H1018.28ZM1131.28 301C1131.28 288 1131.28 274.833 1131.28 261.5C1131.28 248.167 1131.28 235 1131.28 222C1131.28 217.167 1130.03 213.75 1127.53 211.75C1125.19 209.75 1122.36 208.667 1119.03 208.5C1115.69 208.333 1112.61 208.75 1109.78 209.75C1107.11 210.75 1105.44 211.75 1104.78 212.75L1122.28 148.5C1128.28 145.833 1134.69 143.833 1141.53 142.5C1148.53 141.167 1155.44 140.5 1162.28 140.5C1171.94 140.5 1180.94 142 1189.28 145C1197.78 148 1204.61 152.75 1209.78 159.25C1215.11 165.75 1217.78 174.417 1217.78 185.25V301H1131.28Z" fill="#303030"/>
</svg>
